<?xml version="1.0" encoding="utf-8"?>
<!-- Generator: Adobe Illustrator 17.0.2, SVG Export Plug-In . SVG Version: 6.00 Build 0)  -->
<!DOCTYPE svg PUBLIC "-//W3C//DTD SVG 1.1//EN" "http://www.w3.org/Graphics/SVG/1.1/DTD/svg11.dtd">
<svg version="1.1" id="Capa_1" xmlns="http://www.w3.org/2000/svg" xmlns:xlink="http://www.w3.org/1999/xlink" x="0px" y="0px"
	 width="64px" height="64px" viewBox="0 0 64 64" enable-background="new 0 0 64 64" xml:space="preserve">
<g>
	<path d="M18.509,4.812c-3.529,0-6.4,2.871-6.4,6.4l-0.012,43.115c0.555,2.766,3.152,4.861,6.277,4.861h34.874v-42.89h-1.996V4.812
		H18.509z M49.252,8.094v5.854C48.391,12.102,48.214,9.718,49.252,8.094z M17.441,16.298l-0.038-0.044
		c-1.372-0.143-2.284-0.991-2.767-2.009c-0.264-0.556-0.402-1.15-0.423-1.699l-0.097-1.551c0-2.427,1.967-4.183,4.393-4.183h29.82
		c-2.091,2.603-1.435,6.993,0.641,9.486H17.441z M50.25,56.707H19.172V19.686H50.25V56.707z"/>
	<rect x="23.547" y="29.375" width="22.328" height="3.25"/>
	<rect x="23.547" y="35.375" width="22.328" height="3.25"/>
</g>
</svg>
